# Blender3D v248 OBJ File: circle_platform.blend
# www.blender3d.org
v -4.963516 1.020092 -16.650446
v -7.030075 1.428617 -29.123131
v -4.963516 -1.020093 -16.650450
v -7.030074 -1.428618 -29.123131
v -18.095915 -1.428618 -24.809874
v -11.830132 -1.020093 -13.741131
v -18.095917 1.428617 -24.809874
v -11.830132 1.020092 -13.741131
v -14.569149 1.020092 -12.359625
v -22.667475 1.428617 -22.556152
v -14.569149 -1.020093 -12.359625
v -22.667473 -1.428618 -22.556158
v -26.952454 -1.428618 -19.093521
v -16.850628 -1.020093 -10.448895
v -26.952454 1.428616 -19.093517
v -16.850626 1.020092 -10.448895
v -18.587008 1.020092 -8.046367
v -30.683401 1.428616 -13.921814
v -18.587009 -1.020093 -8.046367
v -30.683401 -1.428618 -13.921820
v -32.679836 -1.428618 -9.173800
v -19.750317 -1.020093 -5.352499
v -32.679836 1.428616 -9.173795
v -19.750315 1.020092 -5.352500
v -20.470306 1.020092 -2.974759
v -33.905842 1.428616 -4.785368
v -20.470308 -1.020094 -2.974757
v -33.905842 -1.428619 -4.785375
v -34.207897 -1.428619 -0.035544
v -20.647102 -1.020094 -0.210930
v -34.207897 1.428616 -0.035538
v -20.647100 1.020092 -0.210932
v -20.647100 1.020092 -0.272374
v -34.207897 1.428616 -0.132986
v -20.647102 -1.020094 -0.272376
v -34.207897 -1.428619 -0.132980
v -33.905842 -1.428618 4.616850
v -20.470308 -1.020093 2.491450
v -33.905842 1.428617 4.616845
v -20.470306 1.020092 2.491452
v -19.750315 1.020092 4.869194
v -32.679836 1.428617 9.005271
v -19.750317 -1.020093 4.869194
v -32.679836 -1.428618 9.005275
v -30.683401 -1.428617 13.753297
v -18.587009 -1.020093 7.563061
v -30.683401 1.428617 13.753291
v -18.587008 1.020093 7.563061
v -16.850626 1.020093 9.965589
v -26.952454 1.428618 18.924994
v -16.850628 -1.020092 9.965589
v -26.952454 -1.428617 18.924995
v -22.667473 -1.428616 22.387630
v -14.569149 -1.020092 11.876319
v -22.667475 1.428618 22.387629
v -14.569149 1.020093 11.876319
v -11.830132 1.020094 13.257825
v -18.095917 1.428619 24.641348
v -11.830133 -1.020092 13.257825
v -18.095917 -1.428616 24.641348
v -7.030074 -1.428616 28.247257
v -4.963516 -1.020092 15.662064
v -7.030075 1.428619 28.247257
v -4.963516 1.020094 15.662062
v 4.764831 1.020094 15.662062
v 6.594262 1.428619 28.247257
v 4.764831 -1.020092 15.662064
v 6.594261 -1.428616 28.247257
v 17.668453 -1.428616 24.641348
v 11.637411 -1.020092 13.257825
v 17.668453 1.428619 24.641348
v 11.637410 1.020094 13.257825
v 14.376423 1.020093 11.876319
v 22.240009 1.428618 22.387629
v 14.376423 -1.020092 11.876319
v 22.240007 -1.428616 22.387630
v 26.524990 -1.428617 18.924995
v 16.657902 -1.020092 9.965589
v 26.524990 1.428618 18.924994
v 16.657900 1.020093 9.965589
v 18.394281 1.020093 7.563061
v 30.255939 1.428617 13.753291
v 18.394283 -1.020093 7.563061
v 30.255939 -1.428617 13.753297
v 32.252377 -1.428618 9.005275
v 19.557590 -1.020093 4.869194
v 32.252377 1.428617 9.005271
v 19.557589 1.020092 4.869194
v 20.277582 1.020092 2.491452
v 33.478382 1.428617 4.616845
v 20.277584 -1.020093 2.491450
v 33.478382 -1.428618 4.616850
v 33.780434 -1.428619 -0.132980
v 20.454378 -1.020094 -0.272376
v 33.780434 1.428616 -0.132986
v 20.454376 1.020092 -0.272374
v 20.454376 1.020092 -0.210932
v 33.780434 1.428616 -0.035538
v 20.454378 -1.020094 -0.210930
v 33.780434 -1.428619 -0.035544
v 33.478382 -1.428619 -4.785375
v 20.277584 -1.020094 -2.974757
v 33.478382 1.428616 -4.785368
v 20.277582 1.020092 -2.974759
v 19.557589 1.020092 -5.352500
v 32.252377 1.428616 -9.173795
v 19.557590 -1.020093 -5.352499
v 32.252377 -1.428618 -9.173800
v 30.255939 -1.428618 -13.921820
v 18.394283 -1.020093 -8.046367
v 30.255939 1.428616 -13.921814
v 18.394281 1.020092 -8.046367
v 16.657900 1.020092 -10.448895
v 26.524990 1.428616 -19.093517
v 16.657902 -1.020093 -10.448895
v 26.524990 -1.428618 -19.093521
v 22.240007 -1.428618 -22.556158
v 14.376423 -1.020093 -12.359625
v 22.240009 1.428617 -22.556152
v 14.376423 1.020092 -12.359625
v 11.637410 1.020092 -13.741131
v 17.668453 1.428617 -24.809874
v 11.637410 -1.020093 -13.741131
v 17.668451 -1.428618 -24.809874
v 6.594261 -1.428618 -29.123131
v 4.764831 -1.020093 -16.650450
v 6.594262 1.428617 -29.123131
v 4.764831 1.020092 -16.650446
v 6.628717 -1.428615 -29.123125
v 4.789433 -1.020091 -16.650446
v 6.628716 1.428620 -29.123125
v 4.789433 1.020095 -16.650442
v 4.789433 1.020096 15.662058
v 6.628717 1.428622 28.247252
v 4.789433 -1.020089 15.662061
v 6.628718 -1.428612 28.247252
v 4.789431 1.020089 15.775647
v 4.789431 -1.020097 15.775644
v -4.963519 -1.020099 15.775641
v -4.963519 1.020086 15.775642
vn -0.000000 -0.000000 1.000000
vn -0.000000 -0.000001 1.000000
vn -1.000000 0.000000 -0.000000
vn 0.000000 -1.000000 -0.000000
vn -0.000000 1.000000 0.000000
vn 1.000000 -0.000000 0.000000
vn 0.989489 0.000000 -0.144611
vn 0.989489 -0.000000 -0.144610
vn 0.000000 -0.999474 -0.032444
vn -0.000000 -0.000001 -1.000000
vn -0.000000 0.999474 -0.032444
vn 0.989301 -0.000000 0.145887
vn -0.000000 0.999464 0.032736
vn 0.000000 0.000000 -1.000000
vn 0.000000 -0.999464 0.032736
vn -0.012061 -0.999448 0.030966
vn -0.012689 -0.999470 0.029975
vn 0.362931 -0.000000 -0.931816
vn -0.389832 -0.000002 0.920886
vn -0.389832 0.000000 0.920886
vn -0.012061 0.999448 0.030966
vn -0.012689 0.999470 0.029975
vn -0.014595 0.999475 0.028936
vn -0.014303 0.999477 0.029013
vn -0.450340 0.000000 0.892857
vn 0.442174 -0.000000 -0.896929
vn 0.442175 0.000002 -0.896929
vn -0.014595 -0.999475 0.028936
vn -0.014303 -0.999477 0.029013
vn -0.020377 -0.999496 0.024330
vn -0.019855 -0.999501 0.024571
vn 0.628523 0.000001 -0.777791
vn -0.642066 0.000000 0.766649
vn -0.642066 -0.000001 0.766649
vn -0.020377 0.999496 0.024330
vn -0.019855 0.999501 0.024571
vn -0.025338 0.999511 0.018313
vn -0.025361 0.999511 0.018296
vn -0.810483 -0.000001 0.585762
vn 0.810989 0.000001 -0.585061
vn -0.025339 -0.999511 0.018313
vn -0.025361 -0.999511 0.018296
vn -0.028358 -0.999523 0.012246
vn -0.028551 -0.999520 0.012005
vn 0.921825 0.000001 -0.387607
vn -0.918057 -0.000001 0.396449
vn -0.028358 0.999523 0.012246
vn -0.028551 0.999520 0.012005
vn -0.029478 0.999526 0.008926
vn -0.029791 0.999521 0.008323
vn -0.957084 -0.000001 0.289811
vn -0.957084 -0.000001 0.289810
vn 0.963121 0.000000 -0.269070
vn 0.963121 0.000001 -0.269069
vn -0.029478 -0.999525 0.008926
vn -0.029791 -0.999522 0.008323
vn -0.030663 -0.999528 0.001961
vn -0.030667 -0.999528 0.001950
vn 0.997984 0.000000 -0.063464
vn -0.997960 -0.000001 0.063837
vn -0.030663 0.999528 0.001962
vn -0.030667 0.999528 0.001950
vn -0.013161 0.000001 0.999913
vn -0.013160 -0.000002 0.999913
vn 0.010459 0.000001 -0.999945
vn 0.010460 -0.000002 -0.999945
vn -0.030619 0.999529 -0.001947
vn -0.030621 0.999529 -0.001959
vn -0.997960 -0.000001 -0.063837
vn 0.997984 0.000000 0.063464
vn -0.030621 -0.999529 -0.001959
vn -0.030619 -0.999529 -0.001947
vn -0.029277 -0.999532 -0.008865
vn -0.029601 -0.999528 -0.008270
vn 0.963121 0.000000 0.269070
vn 0.963121 0.000001 0.269069
vn -0.957084 -0.000001 -0.289810
vn -0.029601 0.999528 -0.008270
vn -0.029277 0.999532 -0.008865
vn -0.028290 0.999529 -0.011895
vn -0.028093 0.999532 -0.012132
vn -0.918057 -0.000001 -0.396449
vn 0.921825 0.000001 0.387607
vn -0.028093 -0.999532 -0.012132
vn -0.028290 -0.999529 -0.011895
vn -0.024986 -0.999525 -0.018058
vn -0.025009 -0.999524 -0.018042
vn 0.810989 0.000000 0.585061
vn 0.810989 0.000001 0.585061
vn -0.810483 -0.000001 -0.585762
vn -0.025009 0.999524 -0.018042
vn -0.024986 0.999525 -0.018058
vn -0.019487 0.999519 -0.024115
vn -0.020002 0.999515 -0.023883
vn -0.642066 0.000000 -0.766649
vn -0.642066 -0.000001 -0.766649
vn 0.628523 0.000000 0.777791
vn 0.628523 0.000001 0.777791
vn -0.020002 -0.999515 -0.023883
vn -0.019487 -0.999519 -0.024114
vn -0.014277 -0.999497 -0.028305
vn -0.013991 -0.999499 -0.028379
vn 0.442174 0.000000 0.896929
vn 0.442175 0.000000 0.896929
vn -0.450340 -0.000000 -0.892857
vn -0.013991 0.999499 -0.028379
vn -0.014277 0.999497 -0.028306
vn -0.010087 0.999469 -0.030977
vn -0.010586 0.999486 -0.030260
vn -0.330208 -0.000000 -0.943908
vn -0.330208 -0.000001 -0.943908
vn 0.309614 0.000000 0.950862
vn -0.010586 -0.999486 -0.030260
vn -0.010087 -0.999469 -0.030977
vn 0.010742 -0.999472 -0.030680
vn 0.009911 -0.999488 -0.030414
vn -0.309825 -0.000000 0.950794
vn 0.330463 -0.000001 -0.943819
vn 0.330463 -0.000000 -0.943819
vn 0.010742 0.999471 -0.030680
vn 0.009911 0.999488 -0.030414
vn 0.014161 0.999506 -0.028075
vn 0.013879 0.999507 -0.028153
vn 0.450339 -0.000000 -0.892857
vn 0.450340 0.000000 -0.892857
vn -0.442174 0.000000 0.896929
vn 0.014161 -0.999506 -0.028075
vn 0.013879 -0.999507 -0.028153
vn 0.019775 -0.999526 -0.023612
vn 0.019271 -0.999530 -0.023848
vn -0.628523 0.000000 0.777791
vn -0.628523 0.000001 0.777791
vn 0.642066 0.000000 -0.766649
vn 0.642066 -0.000001 -0.766649
vn 0.019775 0.999526 -0.023612
vn 0.019271 0.999530 -0.023848
vn 0.024633 0.999538 -0.017803
vn 0.024655 0.999538 -0.017786
vn 0.810483 -0.000001 -0.585762
vn -0.810989 0.000000 0.585061
vn -0.810990 0.000001 0.585061
vn 0.024633 -0.999538 -0.017803
vn 0.024655 -0.999538 -0.017786
vn 0.027647 -0.999546 -0.011939
vn 0.027838 -0.999544 -0.011705
vn -0.921825 0.000001 0.387606
vn -0.921825 0.000001 0.387607
vn 0.918057 -0.000001 -0.396449
vn 0.027647 0.999546 -0.011939
vn 0.027837 0.999544 -0.011705
vn 0.028793 0.999547 -0.008719
vn 0.029106 0.999543 -0.008132
vn 0.957084 -0.000001 -0.289810
vn -0.963121 0.000000 0.269070
vn -0.963121 0.000001 0.269069
vn 0.028793 -0.999547 -0.008718
vn 0.029106 -0.999543 -0.008131
vn 0.030090 -0.999545 -0.001913
vn 0.030092 -0.999545 -0.001925
vn -0.997984 0.000000 0.063465
vn 0.997960 -0.000001 -0.063837
vn 0.030090 0.999545 -0.001914
vn 0.030092 0.999545 -0.001925
vn -0.010278 0.000001 -0.999947
vn -0.010279 -0.000002 -0.999947
vn 0.012933 0.000001 0.999916
vn 0.012932 -0.000002 0.999916
vn 0.030136 0.999544 0.001917
vn 0.030133 0.999544 0.001928
vn 0.997960 -0.000001 0.063837
vn -0.997984 0.000000 -0.063465
vn 0.030133 -0.999544 0.001927
vn 0.030136 -0.999544 0.001916
vn 0.028988 -0.999541 0.008778
vn 0.029290 -0.999538 0.008183
vn -0.963121 0.000000 -0.269070
vn -0.963121 0.000001 -0.269069
vn 0.957084 -0.000001 0.289810
vn 0.029289 0.999537 0.008183
vn 0.028988 0.999541 0.008778
vn 0.028091 0.999536 0.011811
vn 0.027904 0.999538 0.012050
vn 0.918057 -0.000001 0.396449
vn -0.921825 0.000001 -0.387607
vn 0.027904 -0.999538 0.012050
vn 0.028091 -0.999536 0.011812
vn 0.024975 -0.999525 0.018050
vn 0.024997 -0.999525 0.018033
vn -0.810990 0.000001 -0.585061
vn 0.810483 -0.000001 0.585762
vn 0.024997 0.999525 0.018033
vn 0.024975 0.999525 0.018050
vn 0.019631 0.999512 0.024294
vn 0.020141 0.999508 0.024049
vn 0.642066 0.000000 0.766649
vn 0.642066 -0.000001 0.766649
vn -0.628523 0.000001 -0.777791
vn 0.020141 -0.999508 0.024049
vn 0.019632 -0.999512 0.024294
vn 0.014474 -0.999483 0.028696
vn 0.014187 -0.999485 0.028777
vn -0.442174 -0.000000 -0.896929
vn -0.442175 0.000002 -0.896929
vn 0.450339 0.000000 0.892857
vn 0.450340 0.000000 0.892857
vn 0.014187 0.999485 0.028777
vn 0.014473 0.999483 0.028696
vn 0.012606 0.999478 0.029753
vn 0.011986 0.999455 0.030750
vn 0.390119 0.000000 0.920765
vn 0.390119 -0.000002 0.920764
vn -0.363168 -0.000000 -0.931724
vn 0.012606 -0.999478 0.029753
vn 0.011986 -0.999455 0.030750
usemtl Material
s off
f 139//1 138//1 140//1
f 138//2 137//2 140//2
f 140//3 1//3 139//3
f 1//3 3//3 139//3
f 130//4 138//4 139//4
f 130//4 139//4 3//4
f 1//5 140//5 132//5
f 140//5 137//5 132//5
f 132//6 137//6 138//6
f 132//6 138//6 130//6
f 136//7 135//7 134//7
f 135//8 133//8 134//8
f 61//9 62//9 136//9
f 62//9 135//9 136//9
f 63//1 61//1 136//1
f 63//1 136//1 134//1
f 62//10 64//10 135//10
f 64//10 133//10 135//10
f 64//11 63//11 134//11
f 64//11 134//11 133//11
f 132//12 130//12 131//12
f 130//12 129//12 131//12
f 1//13 132//13 131//13
f 1//13 131//13 2//13
f 2//14 131//14 129//14
f 2//14 129//14 4//14
f 4//15 129//15 3//15
f 129//15 130//15 3//15
f 126//16 125//16 124//16
f 126//17 124//17 123//17
f 125//18 127//18 124//18
f 127//18 122//18 124//18
f 128//19 126//19 123//19
f 128//20 123//20 121//20
f 127//21 128//21 122//21
f 128//22 121//22 122//22
f 122//23 121//23 120//23
f 122//24 120//24 119//24
f 121//25 123//25 120//25
f 123//25 118//25 120//25
f 124//26 122//26 117//26
f 122//27 119//27 117//27
f 123//28 124//28 118//28
f 124//29 117//29 118//29
f 118//30 117//30 115//30
f 117//31 116//31 115//31
f 117//32 119//32 116//32
f 119//32 114//32 116//32
f 120//33 118//33 113//33
f 118//34 115//34 113//34
f 119//35 120//35 113//35
f 119//36 113//36 114//36
f 114//37 113//37 112//37
f 114//38 112//38 111//38
f 113//39 115//39 112//39
f 115//39 110//39 112//39
f 116//40 114//40 109//40
f 114//40 111//40 109//40
f 115//41 116//41 110//41
f 116//42 109//42 110//42
f 110//43 109//43 107//43
f 109//44 108//44 107//44
f 109//45 111//45 108//45
f 111//45 106//45 108//45
f 112//46 110//46 105//46
f 110//46 107//46 105//46
f 111//47 112//47 105//47
f 111//48 105//48 106//48
f 106//49 105//49 104//49
f 106//50 104//50 103//50
f 105//51 107//51 104//51
f 107//52 102//52 104//52
f 108//53 106//53 101//53
f 106//54 103//54 101//54
f 107//55 108//55 102//55
f 108//56 101//56 102//56
f 102//57 101//57 99//57
f 101//58 100//58 99//58
f 101//59 103//59 100//59
f 103//59 98//59 100//59
f 104//60 102//60 97//60
f 102//60 99//60 97//60
f 103//61 104//61 97//61
f 103//62 97//62 98//62
f 97//63 99//63 98//63
f 99//64 100//64 98//64
f 96//65 95//65 94//65
f 95//66 93//66 94//66
f 90//67 95//67 89//67
f 95//68 96//68 89//68
f 89//69 96//69 91//69
f 96//69 94//69 91//69
f 92//70 93//70 90//70
f 93//70 95//70 90//70
f 91//71 94//71 93//71
f 91//72 93//72 92//72
f 86//73 91//73 85//73
f 91//74 92//74 85//74
f 85//75 92//75 87//75
f 92//76 90//76 87//76
f 88//77 89//77 86//77
f 89//77 91//77 86//77
f 87//78 90//78 89//78
f 87//79 89//79 88//79
f 82//80 87//80 88//80
f 82//81 88//81 81//81
f 81//82 88//82 83//82
f 88//82 86//82 83//82
f 84//83 85//83 82//83
f 85//83 87//83 82//83
f 83//84 86//84 84//84
f 86//85 85//85 84//85
f 78//86 83//86 77//86
f 83//87 84//87 77//87
f 77//88 84//88 79//88
f 84//89 82//89 79//89
f 80//90 81//90 78//90
f 81//90 83//90 78//90
f 79//91 82//91 81//91
f 79//92 81//92 80//92
f 74//93 79//93 80//93
f 74//94 80//94 73//94
f 73//95 80//95 75//95
f 80//96 78//96 75//96
f 76//97 77//97 74//97
f 77//98 79//98 74//98
f 75//99 78//99 76//99
f 78//100 77//100 76//100
f 70//101 75//101 69//101
f 75//102 76//102 69//102
f 69//103 76//103 71//103
f 76//104 74//104 71//104
f 72//105 73//105 70//105
f 73//105 75//105 70//105
f 71//106 74//106 73//106
f 71//107 73//107 72//107
f 66//108 71//108 65//108
f 71//109 72//109 65//109
f 65//110 72//110 70//110
f 65//111 70//111 67//111
f 68//112 69//112 71//112
f 68//112 71//112 66//112
f 67//113 70//113 69//113
f 67//114 69//114 68//114
f 62//115 61//115 59//115
f 61//116 60//116 59//116
f 61//117 63//117 60//117
f 63//117 58//117 60//117
f 64//118 62//118 57//118
f 62//119 59//119 57//119
f 63//120 64//120 57//120
f 63//121 57//121 58//121
f 58//122 57//122 56//122
f 58//123 56//123 55//123
f 57//124 59//124 56//124
f 59//125 54//125 56//125
f 60//126 58//126 53//126
f 58//126 55//126 53//126
f 59//127 60//127 54//127
f 60//128 53//128 54//128
f 54//129 53//129 51//129
f 53//130 52//130 51//130
f 53//131 55//131 52//131
f 55//132 50//132 52//132
f 56//133 54//133 49//133
f 54//134 51//134 49//134
f 55//135 56//135 49//135
f 55//136 49//136 50//136
f 50//137 49//137 48//137
f 50//138 48//138 47//138
f 49//139 51//139 48//139
f 51//139 46//139 48//139
f 52//140 50//140 45//140
f 50//141 47//141 45//141
f 51//142 52//142 46//142
f 52//143 45//143 46//143
f 46//144 45//144 43//144
f 45//145 44//145 43//145
f 45//146 47//146 44//146
f 47//147 42//147 44//147
f 48//148 46//148 41//148
f 46//148 43//148 41//148
f 47//149 48//149 41//149
f 47//150 41//150 42//150
f 42//151 41//151 40//151
f 42//152 40//152 39//152
f 41//153 43//153 40//153
f 43//153 38//153 40//153
f 44//154 42//154 37//154
f 42//155 39//155 37//155
f 43//156 44//156 38//156
f 44//157 37//157 38//157
f 38//158 37//158 36//158
f 38//159 36//159 35//159
f 37//160 39//160 36//160
f 39//160 34//160 36//160
f 40//161 38//161 33//161
f 38//161 35//161 33//161
f 39//162 40//162 34//162
f 40//163 33//163 34//163
f 33//164 35//164 34//164
f 35//165 36//165 34//165
f 32//166 31//166 30//166
f 31//167 29//167 30//167
f 26//168 31//168 32//168
f 26//169 32//169 25//169
f 25//170 32//170 27//170
f 32//170 30//170 27//170
f 28//171 29//171 26//171
f 29//171 31//171 26//171
f 27//172 30//172 28//172
f 30//173 29//173 28//173
f 22//174 27//174 21//174
f 27//175 28//175 21//175
f 21//176 28//176 23//176
f 28//177 26//177 23//177
f 24//178 25//178 22//178
f 25//178 27//178 22//178
f 23//179 26//179 25//179
f 23//180 25//180 24//180
f 18//181 23//181 24//181
f 18//182 24//182 17//182
f 17//183 24//183 19//183
f 24//183 22//183 19//183
f 20//184 21//184 18//184
f 21//184 23//184 18//184
f 19//185 22//185 20//185
f 22//186 21//186 20//186
f 14//187 19//187 13//187
f 19//188 20//188 13//188
f 13//189 20//189 15//189
f 20//189 18//189 15//189
f 16//190 17//190 14//190
f 17//190 19//190 14//190
f 15//191 18//191 17//191
f 15//192 17//192 16//192
f 10//193 15//193 16//193
f 10//194 16//194 9//194
f 9//195 16//195 11//195
f 16//196 14//196 11//196
f 12//197 13//197 10//197
f 13//197 15//197 10//197
f 11//198 14//198 12//198
f 14//199 13//199 12//199
f 6//200 11//200 5//200
f 11//201 12//201 5//201
f 5//202 12//202 7//202
f 12//203 10//203 7//203
f 8//204 9//204 11//204
f 8//205 11//205 6//205
f 7//206 10//206 9//206
f 7//207 9//207 8//207
f 8//208 1//208 7//208
f 1//209 2//209 7//209
f 1//210 8//210 6//210
f 1//211 6//211 3//211
f 4//212 5//212 2//212
f 5//212 7//212 2//212
f 3//213 6//213 5//213
f 3//214 5//214 4//214
