# 3ds Max Wavefront OBJ Exporter v0.97b - (c)2007 guruware
# File Created: 28.11.2012 05:28:21

#
# object Tube02
#

v  -0.0000 11.7408 -10.4465
v  3.5729 11.7408 -9.8165
v  15.0435 0.0240 -41.3318
v  -0.0000 0.0240 -43.9844
v  6.7149 11.7408 -8.0025
v  28.2726 0.0240 -33.6940
v  9.0469 11.7408 -5.2232
v  38.0916 0.0240 -21.9922
v  10.2878 11.7408 -1.8140
v  43.3162 0.0240 -7.6378
v  10.2878 11.7408 1.8140
v  43.3162 0.0240 7.6378
v  9.0469 11.7408 5.2232
v  38.0916 0.0240 21.9922
v  6.7149 11.7408 8.0025
v  28.2726 0.0240 33.6940
v  3.5729 11.7408 9.8165
v  15.0435 0.0240 41.3318
v  -0.0000 11.7408 10.4465
v  -0.0000 0.0240 43.9844
v  -3.5729 11.7408 9.8165
v  -15.0436 0.0240 41.3318
v  -6.7149 11.7408 8.0025
v  -28.2726 0.0240 33.6940
v  -9.0469 11.7408 5.2232
v  -38.0916 0.0240 21.9922
v  -10.2878 11.7408 1.8140
v  -43.3162 0.0240 7.6378
v  -10.2878 11.7408 -1.8140
v  -43.3162 0.0240 -7.6378
v  -9.0469 11.7408 -5.2232
v  -38.0916 0.0240 -21.9922
v  -6.7149 11.7408 -8.0025
v  -28.2726 0.0240 -33.6940
v  -3.5729 11.7408 -9.8165
v  -15.0435 0.0240 -41.3318
v  1.7041 6.0124 -4.6820
v  -0.0000 6.0124 -4.9825
v  3.2027 6.0124 -3.8168
v  4.3150 6.0124 -2.4913
v  4.9068 6.0124 -0.8652
v  4.9068 6.0124 0.8652
v  4.3150 6.0124 2.4913
v  3.2027 6.0124 3.8168
v  1.7041 6.0124 4.6820
v  -0.0000 6.0124 4.9825
v  -1.7041 6.0124 4.6820
v  -3.2027 6.0124 3.8168
v  -4.3150 6.0124 2.4913
v  -4.9068 6.0124 0.8652
v  -4.9068 6.0124 -0.8652
v  -4.3150 6.0124 -2.4913
v  -3.2027 6.0124 -3.8168
v  -1.7041 6.0124 -4.6820
# 54 vertices

vn 0.0581 0.9425 -0.3293
vn 0.1672 0.9425 -0.2895
vn 0.2561 0.9425 -0.2149
vn 0.3142 0.9425 -0.1143
vn 0.3343 0.9425 -0.0000
vn 0.3343 0.9425 0.0000
vn 0.3142 0.9425 0.1143
vn 0.2561 0.9425 0.2149
vn 0.1672 0.9425 0.2895
vn 0.0581 0.9425 0.3293
vn -0.0581 0.9425 0.3293
vn -0.1672 0.9425 0.2895
vn -0.2561 0.9425 0.2149
vn -0.3142 0.9425 0.1143
vn -0.3343 0.9425 -0.0000
vn -0.3142 0.9425 -0.1143
vn -0.2561 0.9425 -0.2149
vn -0.1672 0.9425 -0.2895
vn -0.0581 0.9425 -0.3293
vn -0.1266 0.6847 0.7178
vn -0.3644 0.6847 0.6312
vn -0.5583 0.6847 0.4685
vn -0.6849 0.6847 0.2493
vn -0.7289 0.6847 -0.0000
vn -0.7289 0.6847 0.0000
vn -0.6849 0.6847 -0.2493
vn -0.5583 0.6847 -0.4685
vn -0.3644 0.6847 -0.6312
vn -0.1266 0.6847 -0.7178
vn 0.1266 0.6847 -0.7178
vn 0.3644 0.6847 -0.6312
vn 0.5583 0.6847 -0.4685
vn 0.6849 0.6847 -0.2493
vn 0.7289 0.6847 -0.0000
vn 0.7289 0.6847 0.0000
vn 0.6849 0.6847 0.2493
vn 0.5583 0.6847 0.4685
vn 0.3644 0.6847 0.6312
vn 0.1266 0.6847 0.7178
vn 0.0000 1.0000 -0.0000
vn -0.0000 1.0000 -0.0000
vn -0.0000 1.0000 0.0000
vn 0.0000 1.0000 0.0000
# 43 vertex normals

vt 0.0832 0.0000 0.0000
vt 0.0832 0.0556 0.0000
vt 0.0830 0.0556 0.0000
vt 0.0830 0.0000 0.0000
vt 0.0832 0.1111 0.0000
vt 0.0830 0.1111 0.0000
vt 0.0832 0.1667 0.0000
vt 0.0830 0.1667 0.0000
vt 0.0832 0.2222 0.0000
vt 0.0830 0.2222 0.0000
vt 0.0832 0.2778 0.0000
vt 0.0830 0.2778 0.0000
vt 0.0832 0.3333 0.0000
vt 0.0830 0.3333 0.0000
vt 0.0832 0.3889 0.0000
vt 0.0830 0.3889 0.0000
vt 0.0832 0.4444 0.0000
vt 0.0830 0.4444 0.0000
vt 0.0832 0.5000 0.0000
vt 0.0830 0.5000 0.0000
vt 0.0832 0.5556 0.0000
vt 0.0830 0.5556 0.0000
vt 0.0832 0.6111 0.0000
vt 0.0830 0.6111 0.0000
vt 0.0832 0.6667 0.0000
vt 0.0830 0.6667 0.0000
vt 0.0832 0.7222 0.0000
vt 0.0830 0.7222 0.0000
vt 0.0832 0.7778 0.0000
vt 0.0830 0.7778 0.0000
vt 0.0832 0.8333 0.0000
vt 0.0830 0.8333 0.0000
vt 0.0832 0.8889 0.0000
vt 0.0830 0.8889 0.0000
vt 0.0832 0.9444 0.0000
vt 0.0830 0.9444 0.0000
vt 0.0832 1.0000 0.0000
vt 0.0830 1.0000 0.0000
vt 0.0833 0.0556 0.0000
vt 0.0833 0.0000 0.0000
vt 0.0833 0.1111 0.0000
vt 0.0833 0.1667 0.0000
vt 0.0833 0.2222 0.0000
vt 0.0833 0.2778 0.0000
vt 0.0833 0.3333 0.0000
vt 0.0833 0.3889 0.0000
vt 0.0833 0.4444 0.0000
vt 0.0833 0.5000 0.0000
vt 0.0833 0.5556 0.0000
vt 0.0833 0.6111 0.0000
vt 0.0833 0.6667 0.0000
vt 0.0833 0.7222 0.0000
vt 0.0833 0.7778 0.0000
vt 0.0833 0.8333 0.0000
vt 0.0833 0.8889 0.0000
vt 0.0833 0.9444 0.0000
vt 0.0833 1.0000 0.0000
# 57 texture coords

g Tube02
s off
f 1/1/1 2/2/1 3/3/1 
f 3/3/1 4/4/1 1/1/1 
f 2/2/2 5/5/2 6/6/2 
f 6/6/2 3/3/2 2/2/2 
f 5/5/3 7/7/3 8/8/3 
f 8/8/3 6/6/3 5/5/3 
f 7/7/4 9/9/4 10/10/4 
f 10/10/4 8/8/4 7/7/4 
f 9/9/5 11/11/5 12/12/5 
f 12/12/6 10/10/6 9/9/6 
f 11/11/7 13/13/7 14/14/7 
f 14/14/7 12/12/7 11/11/7 
f 13/13/8 15/15/8 16/16/8 
f 16/16/8 14/14/8 13/13/8 
f 15/15/9 17/17/9 18/18/9 
f 18/18/9 16/16/9 15/15/9 
f 17/17/10 19/19/10 20/20/10 
f 20/20/10 18/18/10 17/17/10 
f 19/19/11 21/21/11 22/22/11 
f 22/22/11 20/20/11 19/19/11 
f 21/21/12 23/23/12 24/24/12 
f 24/24/12 22/22/12 21/21/12 
f 23/23/13 25/25/13 26/26/13 
f 26/26/13 24/24/13 23/23/13 
f 25/25/14 27/27/14 28/28/14 
f 28/28/14 26/26/14 25/25/14 
f 27/27/15 29/29/15 30/30/15 
f 30/30/15 28/28/15 27/27/15 
f 29/29/16 31/31/16 32/32/16 
f 32/32/16 30/30/16 29/29/16 
f 31/31/17 33/33/17 34/34/17 
f 34/34/17 32/32/17 31/31/17 
f 33/33/18 35/35/18 36/36/18 
f 36/36/18 34/34/18 33/33/18 
f 35/35/19 1/37/19 4/38/19 
f 4/38/19 36/36/19 35/35/19 
f 37/39/20 2/2/20 1/1/20 
f 1/1/20 38/40/20 37/39/20 
f 39/41/21 5/5/21 2/2/21 
f 2/2/21 37/39/21 39/41/21 
f 40/42/22 7/7/22 5/5/22 
f 5/5/22 39/41/22 40/42/22 
f 41/43/23 9/9/23 7/7/23 
f 7/7/23 40/42/23 41/43/23 
f 42/44/24 11/11/24 9/9/24 
f 9/9/25 41/43/25 42/44/25 
f 43/45/26 13/13/26 11/11/26 
f 11/11/26 42/44/26 43/45/26 
f 44/46/27 15/15/27 13/13/27 
f 13/13/27 43/45/27 44/46/27 
f 45/47/28 17/17/28 15/15/28 
f 15/15/28 44/46/28 45/47/28 
f 46/48/29 19/19/29 17/17/29 
f 17/17/29 45/47/29 46/48/29 
f 47/49/30 21/21/30 19/19/30 
f 19/19/30 46/48/30 47/49/30 
f 48/50/31 23/23/31 21/21/31 
f 21/21/31 47/49/31 48/50/31 
f 49/51/32 25/25/32 23/23/32 
f 23/23/32 48/50/32 49/51/32 
f 50/52/33 27/27/33 25/25/33 
f 25/25/33 49/51/33 50/52/33 
f 51/53/34 29/29/34 27/27/34 
f 27/27/35 50/52/35 51/53/35 
f 52/54/36 31/31/36 29/29/36 
f 29/29/36 51/53/36 52/54/36 
f 53/55/37 33/33/37 31/31/37 
f 31/31/37 52/54/37 53/55/37 
f 54/56/38 35/35/38 33/33/38 
f 33/33/38 53/55/38 54/56/38 
f 38/57/39 1/37/39 35/35/39 
f 35/35/39 54/56/39 38/57/39 
f 44/46/40 53/55/40 52/54/40 
f 52/54/40 45/47/40 44/46/40 
f 45/47/40 52/54/40 51/53/40 
f 51/53/41 46/48/41 45/47/41 
f 46/48/40 51/53/40 50/52/40 
f 50/52/40 47/49/40 46/48/40 
f 47/49/40 50/52/40 49/51/40 
f 49/51/40 48/50/40 47/49/40 
f 43/45/42 54/56/42 53/55/42 
f 53/55/40 44/46/40 43/45/40 
f 42/44/43 38/40/43 54/56/43 
f 54/56/43 43/45/43 42/44/43 
f 38/40/42 42/44/42 41/43/42 
f 41/43/40 37/39/40 38/40/40 
f 40/42/40 39/41/40 37/39/40 
f 37/39/40 41/43/40 40/42/40 
# 88 faces

